<?xml version="1.0" encoding="UTF-8"?>
<svg id="Layer_1" data-name="Layer 1" xmlns="http://www.w3.org/2000/svg" viewBox="0 0 1024 1024">
  <path d="M386.96,472.81h-36.96c-3.9,0-7.07,3.16-7.07,7.07v47.52c0,6.73,8.51,9.65,12.64,4.34l36.96-47.52c3.61-4.64.3-11.4-5.58-11.4Z"/>
  <path d="M512,0C229.23,0,0,229.23,0,512s229.23,512,512,512,512-229.23,512-512S794.77,0,512,0ZM737.92,566.47c-8.38,12.55-19.34,23.53-26.65,36.86-24.89,45.35-6.63,121.61-12.48,172.96-1.58,13.86-11.07,16.76-22.63,19.28-77.64,16.96-160.31,23.52-238.41,39.77-8.13,2.67-23.46-7.94-23.46-15.87v-81.92c-28.91,4.01-57.68,11.43-86.86,12.56-14.2-.54-35.07-19.54-35.07-33.51v-104.79h-45.09c-8.77,0-19.61-16.73-15.31-25.48l59.8-120.55c.95-28.57-.47-55.69,4.98-83.93,20.22-104.84,111.55-187.74,218.41-195.63l2.02-1.17h38.1c26.9,2.54,52.07,9.07,75.11,18.83-30.18,30.82-70.1,52.06-114.94,58.86,88.17,13.36,157.38,82.56,170.74,170.74,7.2-47.48,30.59-89.45,64.42-120.18,40.67,75,42.44,170.62-12.67,253.18ZM686.18,385.63c-9.62-63.47-59.43-113.28-122.9-122.9,63.47-9.62,113.28-59.43,122.9-122.9,9.62,63.47,59.43,113.28,122.9,122.9-63.47,9.62-113.28,59.43-122.9,122.9Z"/>
</svg>